<svg id="Icons" height="512" viewBox="0 0 74 74" width="512" xmlns="http://www.w3.org/2000/svg"><path d="m58.741 55.44h-.069a1 1 0 0 1 -.93-1.067l.2-2.91a1.012 1.012 0 0 1 1.067-.929 1 1 0 0 1 .929 1.067l-.2 2.91a1 1 0 0 1 -.997.929z"/><path d="m55.32 72h-36.64a3.434 3.434 0 0 1 -3.417-3.179l-3.471-49.812a1 1 0 0 1 1-1.069h48.418a1 1 0 0 1 1 1.07l-1.09 15.62a1.013 1.013 0 0 1 -1.067.928 1 1 0 0 1 -.929-1.068l1.016-14.55h-46.278l3.4 48.741a1.411 1.411 0 0 0 1.418 1.319h36.64a1.412 1.412 0 0 0 1.423-1.321l.509-7.308a1 1 0 1 1 2 .138l-.51 7.31a3.436 3.436 0 0 1 -3.422 3.181z"/><path d="m59.431 45.53h-.069a1 1 0 0 1 -.93-1.065l.2-2.969a1 1 0 0 1 2 .134l-.2 2.97a1 1 0 0 1 -1.001.93z"/><path d="m64.189 19.94h-54.378a2.112 2.112 0 0 1 -2.111-2.109v-5.6a2.112 2.112 0 0 1 2.111-2.109h54.378a2.112 2.112 0 0 1 2.111 2.109v5.6a2.112 2.112 0 0 1 -2.111 2.109zm-54.378-7.818a.11.11 0 0 0 -.111.109v5.6a.11.11 0 0 0 .111.109h54.378a.11.11 0 0 0 .111-.109v-5.6a.11.11 0 0 0 -.111-.109z"/><path d="m47.655 58.229h-.058a1 1 0 0 1 -.941-1.057l1.452-24.972a1.012 1.012 0 0 1 1.056-.94 1 1 0 0 1 .94 1.056l-1.452 24.971a1 1 0 0 1 -.997.942z"/><path d="m37 58.229a1 1 0 0 1 -1-1v-24.971a1 1 0 1 1 2 0v24.971a1 1 0 0 1 -1 1z"/><path d="m26.345 58.229a1 1 0 0 1 -1-.942l-1.445-24.971a1 1 0 1 1 2-.116l1.452 24.97a1 1 0 0 1 -.941 1.057z"/><path d="m47.654 12.122h-21.308a1 1 0 0 1 -1-1v-5.7a3.426 3.426 0 0 1 3.422-3.422h16.464a3.426 3.426 0 0 1 3.422 3.421v5.7a1 1 0 0 1 -1 1.001zm-20.308-2h19.308v-4.7a1.423 1.423 0 0 0 -1.422-1.422h-16.464a1.423 1.423 0 0 0 -1.422 1.421z"/></svg>