<svg width="64" height="64" viewBox="0 0 64 64" fill="none" xmlns="http://www.w3.org/2000/svg">
<g clip-path="url(#clip0)">
<path d="M8 20V60C8 62.2 9.8 64 12 64H48C50.2 64 52 62.2 52 60V20H8ZM20 56H16V28H20V56ZM28 56H24V28H28V56ZM36 56H32V28H36V56ZM44 56H40V28H44V56Z" fill="black"/>
<path d="M53 8H40V3C39.9968 2.20532 39.6798 1.4441 39.1178 0.882171C38.5559 0.320245 37.7947 0.00315979 37 0L23 0C22.2053 0.00315979 21.4441 0.320245 20.8822 0.882171C20.3202 1.4441 20.0032 2.20532 20 3V8H7C6.205 8.00211 5.44316 8.31886 4.88101 8.88101C4.31886 9.44316 4.00211 10.205 4 11V16H56V11C55.9979 10.205 55.6811 9.44316 55.119 8.88101C54.5568 8.31886 53.795 8.00211 53 8ZM36 8H24V4.052H36V8Z" fill="black"/>
</g>
<defs>
<clipPath id="clip0">
<rect width="64" height="64" fill="white"/>
</clipPath>
</defs>
</svg>
