<svg height="480pt" viewBox="0 0 480 480" width="480pt" xmlns="http://www.w3.org/2000/svg"><path d="m392 80h-40v-16h40c4.417969 0 8-3.582031 8-8v-48c0-4.417969-3.582031-8-8-8h-80c-4.417969 0-8 3.582031-8 8v72h-120c-45.46875.0625-83.417969 34.722656-87.59375 80h-40.40625c-.160156 0-.296875.0625-.457031.070312-.613281.03125-1.222657.128907-1.816407.296876-.269531.089843-.539062.195312-.796874.3125-.273438.09375-.542969.203124-.800782.328124-.191406.113282-.34375.273438-.527344.390626-.242187.160156-.476562.335937-.699218.523437-.394532.335937-.757813.714844-1.078125 1.125-.171875.203125-.335938.414063-.488281.632813-.398438.613281-.710938 1.277343-.929688 1.976562 0 .054688-.054688.097656-.070312.152344-.214844.710937-.328126 1.449218-.335938 2.191406v56h-32v16h32v56c0 4.417969 3.582031 8 8 8h200v168c0 4.417969 3.582031 8 8 8h48c4.417969 0 8-3.582031 8-8v-168h152c4.417969 0 8-3.582031 8-8v-128c-.054688-48.578125-39.421875-87.945312-88-88zm-72-64h64v32h-40c-4.417969 0-8 3.582031-8 8v128h-16zm-136 80c2.398438 0 4.800781.128906 7.113281.359375.796875.082031 1.527344.226563 2.300781.328125 1.554688.207031 3.097657.410156 4.617188.703125.90625.175781 1.785156.425781 2.671875.640625 1.351563.320312 2.703125.640625 4 1.03125.929687.28125 1.832031.617188 2.746094.9375 1.238281.433594 2.480469.855469 3.679687 1.351562.917969.375 1.816406.800782 2.710938 1.207032 1.152344.53125 2.296875 1.066406 3.417968 1.648437.886719.464844 1.757813.96875 2.621094 1.472657 1.074219.625 2.144532 1.257812 3.199219 1.9375.851563.550781 1.683594 1.125 2.507813 1.710937.996093.710937 1.972656 1.441406 2.933593 2.199219.800781.628906 1.585938 1.273437 2.351563 1.9375.929687.800781 1.824218 1.597656 2.703125 2.457031.738281.703125 1.464843 1.40625 2.167969 2.132813.851562.882812 1.664062 1.792968 2.464843 2.714843.664063.796875 1.335938 1.527344 1.96875 2.320313.800781.957031 1.488281 1.949218 2.207031 2.949218.59375.800782 1.183594 1.601563 1.746094 2.464844.6875 1.039063 1.3125 2.121094 1.941406 3.199219.503907.855469 1.035157 1.703125 1.496094 2.585937.609375 1.144532 1.144532 2.335938 1.699219 3.511719.398437.863281.796875 1.710938 1.207031 2.589844.558594 1.34375 1.03125 2.730469 1.503906 4.113281.261719.800782.574219 1.511719.800782 2.289063.664062 2.132812 1.230468 4.328125 1.695312 6.589843.136719.664063.199219 1.351563.320313 2.023438.269531 1.515625.527343 3.035156.703125 4.585938h-143.046875c4.117187-36.417969 34.902343-63.949219 71.550781-63.992188zm-80 80h131.734375l-75.734375 46.609375-51.808594-31.882813-23.925781-14.726562zm-40 112v-105.679688l35.808594 22.03125 56 34.464844c2.570312 1.585938 5.820312 1.585938 8.390625 0l91.800781-56.496094v105.679688zm240 176h-32v-160h32zm160-176h-192v-120c-.015625-3.378906-.222656-6.757812-.625-10.113281-.117188-1.054688-.320312-2.070313-.480469-3.117188-.34375-2.273437-.75-4.523437-1.261719-6.738281-.273437-1.152344-.570312-2.289062-.878906-3.414062-.585937-2.113282-1.25-4.183594-1.984375-6.226563-.378906-1.046875-.738281-2.101563-1.144531-3.125-.9375-2.328125-1.992188-4.59375-3.121094-6.824219-.320312-.640625-.59375-1.304687-.9375-1.9375-1.507812-2.808594-3.167968-5.53125-4.972656-8.160156-.464844-.671875-.984375-1.296875-1.464844-1.953125-1.402344-1.917969-2.847656-3.796875-4.394531-5.597656-.726563-.847657-1.496094-1.664063-2.253906-2.480469-1.433594-1.546875-2.921875-3.042969-4.457031-4.488281-.800782-.800781-1.679688-1.601563-2.542969-2.3125-1.679688-1.449219-3.425781-2.816407-5.207031-4.144531-.59375-.4375-1.121094-.941407-1.730469-1.367188h69.457031v96c0 4.417969 3.582031 8 8 8h32c4.417969 0 8-3.582031 8-8v-96h40c39.746094.042969 71.957031 32.253906 72 72zm0 0"/><path d="m0 192h32v16h-32zm0 0"/><path d="m0 256h32v16h-32zm0 0"/></svg>