<svg id="Capa_1" enable-background="new 0 0 512 512" height="512" viewBox="0 0 512 512" width="512" xmlns="http://www.w3.org/2000/svg"><g><g><path d="m157.004 277.769c-9.706 0-17.602 7.896-17.602 17.602v101.017c0 9.706 7.896 17.602 17.602 17.602h20.204c9.706 0 17.602-7.896 17.602-17.602v-101.018c0-9.705-7.896-17.602-17.602-17.602h-20.204zm22.805 17.601v101.017c0 1.435-1.167 2.602-2.602 2.602h-20.204c-1.435 0-2.602-1.167-2.602-2.602v-101.017c0-1.435 1.167-2.602 2.602-2.602h20.204c1.435.001 2.602 1.168 2.602 2.602z"/><path d="m245.898 277.769c-9.706 0-17.602 7.896-17.602 17.602v101.017c0 9.706 7.896 17.602 17.602 17.602h20.203c9.706 0 17.602-7.896 17.602-17.602v-101.018c0-9.705-7.896-17.602-17.602-17.602h-20.203zm22.805 17.601v101.017c0 1.435-1.167 2.602-2.602 2.602h-20.203c-1.435 0-2.602-1.167-2.602-2.602v-101.017c0-1.435 1.167-2.602 2.602-2.602h20.203c1.435.001 2.602 1.168 2.602 2.602z"/><path d="m354.996 277.769h-20.204c-9.706 0-17.602 7.896-17.602 17.602v101.017c0 9.706 7.896 17.602 17.602 17.602h20.204c9.706 0 17.602-7.896 17.602-17.602v-101.018c0-9.705-7.896-17.601-17.602-17.601zm2.602 118.618c0 1.435-1.167 2.602-2.602 2.602h-20.204c-1.435 0-2.602-1.167-2.602-2.602v-101.017c0-1.435 1.167-2.602 2.602-2.602h20.204c1.435 0 2.602 1.167 2.602 2.602z"/><path d="m494.4 194.937h-50.61c-4.142 0-7.5 3.357-7.5 7.5s3.358 7.5 7.5 7.5h50.61c1.434 0 2.6 1.166 2.6 2.6v20.2c0 1.438-1.167 2.609-2.6 2.609h-123.014c.599-1.166 1.122-2.38 1.559-3.64 2.423-6.992 1.979-14.509-1.252-21.166l-.293-.604h37.29c4.142 0 7.5-3.357 7.5-7.5s-3.358-7.5-7.5-7.5h-44.569l-62.989-129.807c-6.67-13.742-23.278-19.496-37.018-12.829-3.096 1.502-5.827 3.528-8.114 5.964-2.287-2.435-5.018-4.462-8.114-5.964-13.743-6.668-30.349-.913-37.018 12.829l-62.989 129.808h-130.279c-9.705 0-17.6 7.896-17.6 17.6v20.2c0 9.71 7.896 17.609 17.6 17.609h10.331l30.533 180.63c3.082 18.253 18.759 31.501 37.276 31.501h256.05c4.142 0 7.5-3.357 7.5-7.5s-3.358-7.5-7.5-7.5h-256.05c-11.17 0-20.626-7.99-22.485-19l-30.111-178.131h22.736c4.142 0 7.5-3.357 7.5-7.5s-3.358-7.5-7.5-7.5h-48.28c-1.434 0-2.6-1.171-2.6-2.609v-20.2c0-1.434 1.167-2.6 2.6-2.6h123l-.293.604c-3.23 6.657-3.675 14.174-1.252 21.166.437 1.26.96 2.474 1.559 3.64h-39.634c-4.142 0-7.5 3.357-7.5 7.5s3.358 7.5 7.5 7.5h368.844l-30.984 178.236c-1.901 10.947-11.351 18.894-22.47 18.894h-29.48c-4.142 0-7.5 3.357-7.5 7.5s3.358 7.5 7.5 7.5h29.48c18.431 0 34.097-13.175 37.249-31.326l31.43-180.805h9.351c9.705 0 17.6-7.899 17.6-17.609v-20.2c0-9.705-7.896-17.6-17.6-17.6zm-230.195-121.872c1.111-3.206 3.404-5.788 6.457-7.269 1.782-.865 3.667-1.274 5.526-1.274 4.716 0 9.255 2.637 11.449 7.156l70.561 145.411c1.481 3.053 1.685 6.499.574 9.705s-3.405 5.788-6.457 7.269c-3.053 1.483-6.5 1.686-9.706.574-3.206-1.11-5.787-3.404-7.269-6.457l-70.561-145.41c-1.481-3.053-1.685-6.499-.574-9.705zm-8.205 25.972 46.536 95.9h-93.072zm-31.637-27.359c2.194-4.521 6.732-7.156 11.449-7.156 1.858 0 3.745.41 5.526 1.274 3.052 1.48 5.346 4.062 6.457 7.269 1.111 3.206.907 6.652-.574 9.705l-70.561 145.41c-1.481 3.053-4.062 5.347-7.269 6.457-3.206 1.111-6.653.909-9.706-.574-3.052-1.48-5.346-4.062-6.457-7.269-1.111-3.206-.907-6.652.574-9.705zm-34.208 163.051 12.03-24.792h107.63l12.03 24.792c.101.209.212.411.318.617h-132.326c.106-.206.216-.408.318-.617z"/></g></g></svg>